<svg version="1.1" xmlns="http://www.w3.org/2000/svg" width="513" height="72"><g id="barcode" fill="#000000" stroke="none"><rect x="0" y="0" width="3" height="9" /><rect x="3" y="0" width="3" height="9" /><rect x="6" y="0" width="3" height="9" /><rect x="9" y="0" width="3" height="9" /><rect x="12" y="0" width="3" height="9" /><rect x="15" y="0" width="3" height="9" /><rect x="18" y="0" width="3" height="9" /><rect x="21" y="0" width="3" height="9" /><rect x="27" y="0" width="3" height="9" /><rect x="33" y="0" width="3" height="9" /><rect x="39" y="0" width="3" height="9" /><rect x="51" y="0" width="3" height="9" /><rect x="54" y="0" width="3" height="9" /><rect x="57" y="0" width="3" height="9" /><rect x="60" y="0" width="3" height="9" /><rect x="63" y="0" width="3" height="9" /><rect x="69" y="0" width="3" height="9" /><rect x="75" y="0" width="3" height="9" /><rect x="81" y="0" width="3" height="9" /><rect x="84" y="0" width="3" height="9" /><rect x="87" y="0" width="3" height="9" /><rect x="90" y="0" width="3" height="9" /><rect x="93" y="0" width="3" height="9" /><rect x="102" y="0" width="3" height="9" /><rect x="105" y="0" width="3" height="9" /><rect x="108" y="0" width="3" height="9" /><rect x="111" y="0" width="3" height="9" /><rect x="117" y="0" width="3" height="9" /><rect x="126" y="0" width="3" height="9" /><rect x="135" y="0" width="3" height="9" /><rect x="138" y="0" width="3" height="9" /><rect x="141" y="0" width="3" height="9" /><rect x="144" y="0" width="3" height="9" /><rect x="153" y="0" width="3" height="9" /><rect x="156" y="0" width="3" height="9" /><rect x="159" y="0" width="3" height="9" /><rect x="162" y="0" width="3" height="9" /><rect x="168" y="0" width="3" height="9" /><rect x="171" y="0" width="3" height="9" /><rect x="180" y="0" width="3" height="9" /><rect x="189" y="0" width="3" height="9" /><rect x="192" y="0" width="3" height="9" /><rect x="195" y="0" width="3" height="9" /><rect x="204" y="0" width="3" height="9" /><rect x="207" y="0" width="3" height="9" /><rect x="216" y="0" width="3" height="9" /><rect x="228" y="0" width="3" height="9" /><rect x="243" y="0" width="3" height="9" /><rect x="246" y="0" width="3" height="9" /><rect x="255" y="0" width="3" height="9" /><rect x="258" y="0" width="3" height="9" /><rect x="267" y="0" width="3" height="9" /><rect x="273" y="0" width="3" height="9" /><rect x="282" y="0" width="3" height="9" /><rect x="285" y="0" width="3" height="9" /><rect x="306" y="0" width="3" height="9" /><rect x="318" y="0" width="3" height="9" /><rect x="324" y="0" width="3" height="9" /><rect x="339" y="0" width="3" height="9" /><rect x="357" y="0" width="3" height="9" /><rect x="369" y="0" width="3" height="9" /><rect x="372" y="0" width="3" height="9" /><rect x="375" y="0" width="3" height="9" /><rect x="381" y="0" width="3" height="9" /><rect x="384" y="0" width="3" height="9" /><rect x="387" y="0" width="3" height="9" /><rect x="396" y="0" width="3" height="9" /><rect x="408" y="0" width="3" height="9" /><rect x="411" y="0" width="3" height="9" /><rect x="414" y="0" width="3" height="9" /><rect x="417" y="0" width="3" height="9" /><rect x="420" y="0" width="3" height="9" /><rect x="426" y="0" width="3" height="9" /><rect x="432" y="0" width="3" height="9" /><rect x="441" y="0" width="3" height="9" /><rect x="444" y="0" width="3" height="9" /><rect x="447" y="0" width="3" height="9" /><rect x="450" y="0" width="3" height="9" /><rect x="453" y="0" width="3" height="9" /><rect x="459" y="0" width="3" height="9" /><rect x="462" y="0" width="3" height="9" /><rect x="465" y="0" width="3" height="9" /><rect x="468" y="0" width="3" height="9" /><rect x="471" y="0" width="3" height="9" /><rect x="474" y="0" width="3" height="9" /><rect x="477" y="0" width="3" height="9" /><rect x="483" y="0" width="3" height="9" /><rect x="495" y="0" width="3" height="9" /><rect x="501" y="0" width="3" height="9" /><rect x="510" y="0" width="3" height="9" /><rect x="0" y="9" width="3" height="9" /><rect x="3" y="9" width="3" height="9" /><rect x="6" y="9" width="3" height="9" /><rect x="9" y="9" width="3" height="9" /><rect x="12" y="9" width="3" height="9" /><rect x="15" y="9" width="3" height="9" /><rect x="18" y="9" width="3" height="9" /><rect x="21" y="9" width="3" height="9" /><rect x="27" y="9" width="3" height="9" /><rect x="33" y="9" width="3" height="9" /><rect x="39" y="9" width="3" height="9" /><rect x="51" y="9" width="3" height="9" /><rect x="54" y="9" width="3" height="9" /><rect x="57" y="9" width="3" height="9" /><rect x="60" y="9" width="3" height="9" /><rect x="63" y="9" width="3" height="9" /><rect x="66" y="9" width="3" height="9" /><rect x="72" y="9" width="3" height="9" /><rect x="78" y="9" width="3" height="9" /><rect x="90" y="9" width="3" height="9" /><rect x="93" y="9" width="3" height="9" /><rect x="96" y="9" width="3" height="9" /><rect x="102" y="9" width="3" height="9" /><rect x="108" y="9" width="3" height="9" /><rect x="111" y="9" width="3" height="9" /><rect x="117" y="9" width="3" height="9" /><rect x="120" y="9" width="3" height="9" /><rect x="123" y="9" width="3" height="9" /><rect x="126" y="9" width="3" height="9" /><rect x="129" y="9" width="3" height="9" /><rect x="144" y="9" width="3" height="9" /><rect x="153" y="9" width="3" height="9" /><rect x="156" y="9" width="3" height="9" /><rect x="159" y="9" width="3" height="9" /><rect x="162" y="9" width="3" height="9" /><rect x="165" y="9" width="3" height="9" /><rect x="168" y="9" width="3" height="9" /><rect x="180" y="9" width="3" height="9" /><rect x="183" y="9" width="3" height="9" /><rect x="186" y="9" width="3" height="9" /><rect x="192" y="9" width="3" height="9" /><rect x="198" y="9" width="3" height="9" /><rect x="204" y="9" width="3" height="9" /><rect x="207" y="9" width="3" height="9" /><rect x="210" y="9" width="3" height="9" /><rect x="213" y="9" width="3" height="9" /><rect x="222" y="9" width="3" height="9" /><rect x="228" y="9" width="3" height="9" /><rect x="231" y="9" width="3" height="9" /><rect x="243" y="9" width="3" height="9" /><rect x="246" y="9" width="3" height="9" /><rect x="255" y="9" width="3" height="9" /><rect x="258" y="9" width="3" height="9" /><rect x="261" y="9" width="3" height="9" /><rect x="267" y="9" width="3" height="9" /><rect x="270" y="9" width="3" height="9" /><rect x="273" y="9" width="3" height="9" /><rect x="279" y="9" width="3" height="9" /><rect x="282" y="9" width="3" height="9" /><rect x="285" y="9" width="3" height="9" /><rect x="288" y="9" width="3" height="9" /><rect x="297" y="9" width="3" height="9" /><rect x="306" y="9" width="3" height="9" /><rect x="309" y="9" width="3" height="9" /><rect x="312" y="9" width="3" height="9" /><rect x="315" y="9" width="3" height="9" /><rect x="327" y="9" width="3" height="9" /><rect x="339" y="9" width="3" height="9" /><rect x="345" y="9" width="3" height="9" /><rect x="357" y="9" width="3" height="9" /><rect x="360" y="9" width="3" height="9" /><rect x="369" y="9" width="3" height="9" /><rect x="387" y="9" width="3" height="9" /><rect x="390" y="9" width="3" height="9" /><rect x="393" y="9" width="3" height="9" /><rect x="399" y="9" width="3" height="9" /><rect x="408" y="9" width="3" height="9" /><rect x="411" y="9" width="3" height="9" /><rect x="414" y="9" width="3" height="9" /><rect x="417" y="9" width="3" height="9" /><rect x="423" y="9" width="3" height="9" /><rect x="429" y="9" width="3" height="9" /><rect x="438" y="9" width="3" height="9" /><rect x="459" y="9" width="3" height="9" /><rect x="462" y="9" width="3" height="9" /><rect x="465" y="9" width="3" height="9" /><rect x="468" y="9" width="3" height="9" /><rect x="471" y="9" width="3" height="9" /><rect x="474" y="9" width="3" height="9" /><rect x="477" y="9" width="3" height="9" /><rect x="483" y="9" width="3" height="9" /><rect x="495" y="9" width="3" height="9" /><rect x="501" y="9" width="3" height="9" /><rect x="510" y="9" width="3" height="9" /><rect x="0" y="18" width="3" height="9" /><rect x="3" y="18" width="3" height="9" /><rect x="6" y="18" width="3" height="9" /><rect x="9" y="18" width="3" height="9" /><rect x="12" y="18" width="3" height="9" /><rect x="15" y="18" width="3" height="9" /><rect x="18" y="18" width="3" height="9" /><rect x="21" y="18" width="3" height="9" /><rect x="27" y="18" width="3" height="9" /><rect x="33" y="18" width="3" height="9" /><rect x="39" y="18" width="3" height="9" /><rect x="51" y="18" width="3" height="9" /><rect x="57" y="18" width="3" height="9" /><rect x="63" y="18" width="3" height="9" /><rect x="75" y="18" width="3" height="9" /><rect x="78" y="18" width="3" height="9" /><rect x="81" y="18" width="3" height="9" /><rect x="84" y="18" width="3" height="9" /><rect x="102" y="18" width="3" height="9" /><rect x="108" y="18" width="3" height="9" /><rect x="111" y="18" width="3" height="9" /><rect x="114" y="18" width="3" height="9" /><rect x="117" y="18" width="3" height="9" /><rect x="129" y="18" width="3" height="9" /><rect x="132" y="18" width="3" height="9" /><rect x="138" y="18" width="3" height="9" /><rect x="141" y="18" width="3" height="9" /><rect x="153" y="18" width="3" height="9" /><rect x="162" y="18" width="3" height="9" /><rect x="165" y="18" width="3" height="9" /><rect x="168" y="18" width="3" height="9" /><rect x="171" y="18" width="3" height="9" /><rect x="177" y="18" width="3" height="9" /><rect x="180" y="18" width="3" height="9" /><rect x="183" y="18" width="3" height="9" /><rect x="192" y="18" width="3" height="9" /><rect x="195" y="18" width="3" height="9" /><rect x="198" y="18" width="3" height="9" /><rect x="204" y="18" width="3" height="9" /><rect x="207" y="18" width="3" height="9" /><rect x="213" y="18" width="3" height="9" /><rect x="216" y="18" width="3" height="9" /><rect x="219" y="18" width="3" height="9" /><rect x="222" y="18" width="3" height="9" /><rect x="225" y="18" width="3" height="9" /><rect x="231" y="18" width="3" height="9" /><rect x="243" y="18" width="3" height="9" /><rect x="255" y="18" width="3" height="9" /><rect x="258" y="18" width="3" height="9" /><rect x="264" y="18" width="3" height="9" /><rect x="267" y="18" width="3" height="9" /><rect x="270" y="18" width="3" height="9" /><rect x="273" y="18" width="3" height="9" /><rect x="279" y="18" width="3" height="9" /><rect x="282" y="18" width="3" height="9" /><rect x="291" y="18" width="3" height="9" /><rect x="294" y="18" width="3" height="9" /><rect x="297" y="18" width="3" height="9" /><rect x="306" y="18" width="3" height="9" /><rect x="315" y="18" width="3" height="9" /><rect x="318" y="18" width="3" height="9" /><rect x="324" y="18" width="3" height="9" /><rect x="327" y="18" width="3" height="9" /><rect x="342" y="18" width="3" height="9" /><rect x="345" y="18" width="3" height="9" /><rect x="348" y="18" width="3" height="9" /><rect x="351" y="18" width="3" height="9" /><rect x="357" y="18" width="3" height="9" /><rect x="360" y="18" width="3" height="9" /><rect x="366" y="18" width="3" height="9" /><rect x="369" y="18" width="3" height="9" /><rect x="372" y="18" width="3" height="9" /><rect x="381" y="18" width="3" height="9" /><rect x="393" y="18" width="3" height="9" /><rect x="396" y="18" width="3" height="9" /><rect x="399" y="18" width="3" height="9" /><rect x="408" y="18" width="3" height="9" /><rect x="411" y="18" width="3" height="9" /><rect x="414" y="18" width="3" height="9" /><rect x="420" y="18" width="3" height="9" /><rect x="426" y="18" width="3" height="9" /><rect x="438" y="18" width="3" height="9" /><rect x="441" y="18" width="3" height="9" /><rect x="444" y="18" width="3" height="9" /><rect x="447" y="18" width="3" height="9" /><rect x="450" y="18" width="3" height="9" /><rect x="453" y="18" width="3" height="9" /><rect x="459" y="18" width="3" height="9" /><rect x="462" y="18" width="3" height="9" /><rect x="465" y="18" width="3" height="9" /><rect x="468" y="18" width="3" height="9" /><rect x="471" y="18" width="3" height="9" /><rect x="474" y="18" width="3" height="9" /><rect x="477" y="18" width="3" height="9" /><rect x="483" y="18" width="3" height="9" /><rect x="495" y="18" width="3" height="9" /><rect x="501" y="18" width="3" height="9" /><rect x="510" y="18" width="3" height="9" /><rect x="0" y="27" width="3" height="9" /><rect x="3" y="27" width="3" height="9" /><rect x="6" y="27" width="3" height="9" /><rect x="9" y="27" width="3" height="9" /><rect x="12" y="27" width="3" height="9" /><rect x="15" y="27" width="3" height="9" /><rect x="18" y="27" width="3" height="9" /><rect x="21" y="27" width="3" height="9" /><rect x="27" y="27" width="3" height="9" /><rect x="33" y="27" width="3" height="9" /><rect x="39" y="27" width="3" height="9" /><rect x="51" y="27" width="3" height="9" /><rect x="54" y="27" width="3" height="9" /><rect x="60" y="27" width="3" height="9" /><rect x="66" y="27" width="3" height="9" /><rect x="69" y="27" width="3" height="9" /><rect x="72" y="27" width="3" height="9" /><rect x="75" y="27" width="3" height="9" /><rect x="84" y="27" width="3" height="9" /><rect x="87" y="27" width="3" height="9" /><rect x="90" y="27" width="3" height="9" /><rect x="93" y="27" width="3" height="9" /><rect x="96" y="27" width="3" height="9" /><rect x="102" y="27" width="3" height="9" /><rect x="108" y="27" width="3" height="9" /><rect x="123" y="27" width="3" height="9" /><rect x="126" y="27" width="3" height="9" /><rect x="129" y="27" width="3" height="9" /><rect x="141" y="27" width="3" height="9" /><rect x="144" y="27" width="3" height="9" /><rect x="147" y="27" width="3" height="9" /><rect x="153" y="27" width="3" height="9" /><rect x="156" y="27" width="3" height="9" /><rect x="159" y="27" width="3" height="9" /><rect x="165" y="27" width="3" height="9" /><rect x="168" y="27" width="3" height="9" /><rect x="177" y="27" width="3" height="9" /><rect x="180" y="27" width="3" height="9" /><rect x="189" y="27" width="3" height="9" /><rect x="192" y="27" width="3" height="9" /><rect x="195" y="27" width="3" height="9" /><rect x="204" y="27" width="3" height="9" /><rect x="207" y="27" width="3" height="9" /><rect x="219" y="27" width="3" height="9" /><rect x="222" y="27" width="3" height="9" /><rect x="225" y="27" width="3" height="9" /><rect x="231" y="27" width="3" height="9" /><rect x="234" y="27" width="3" height="9" /><rect x="249" y="27" width="3" height="9" /><rect x="255" y="27" width="3" height="9" /><rect x="273" y="27" width="3" height="9" /><rect x="279" y="27" width="3" height="9" /><rect x="282" y="27" width="3" height="9" /><rect x="291" y="27" width="3" height="9" /><rect x="294" y="27" width="3" height="9" /><rect x="306" y="27" width="3" height="9" /><rect x="318" y="27" width="3" height="9" /><rect x="327" y="27" width="3" height="9" /><rect x="330" y="27" width="3" height="9" /><rect x="333" y="27" width="3" height="9" /><rect x="336" y="27" width="3" height="9" /><rect x="342" y="27" width="3" height="9" /><rect x="345" y="27" width="3" height="9" /><rect x="348" y="27" width="3" height="9" /><rect x="351" y="27" width="3" height="9" /><rect x="357" y="27" width="3" height="9" /><rect x="372" y="27" width="3" height="9" /><rect x="375" y="27" width="3" height="9" /><rect x="384" y="27" width="3" height="9" /><rect x="387" y="27" width="3" height="9" /><rect x="393" y="27" width="3" height="9" /><rect x="408" y="27" width="3" height="9" /><rect x="411" y="27" width="3" height="9" /><rect x="414" y="27" width="3" height="9" /><rect x="420" y="27" width="3" height="9" /><rect x="429" y="27" width="3" height="9" /><rect x="435" y="27" width="3" height="9" /><rect x="438" y="27" width="3" height="9" /><rect x="441" y="27" width="3" height="9" /><rect x="459" y="27" width="3" height="9" /><rect x="462" y="27" width="3" height="9" /><rect x="465" y="27" width="3" height="9" /><rect x="468" y="27" width="3" height="9" /><rect x="471" y="27" width="3" height="9" /><rect x="474" y="27" width="3" height="9" /><rect x="477" y="27" width="3" height="9" /><rect x="483" y="27" width="3" height="9" /><rect x="495" y="27" width="3" height="9" /><rect x="501" y="27" width="3" height="9" /><rect x="510" y="27" width="3" height="9" /><rect x="0" y="36" width="3" height="9" /><rect x="3" y="36" width="3" height="9" /><rect x="6" y="36" width="3" height="9" /><rect x="9" y="36" width="3" height="9" /><rect x="12" y="36" width="3" height="9" /><rect x="15" y="36" width="3" height="9" /><rect x="18" y="36" width="3" height="9" /><rect x="21" y="36" width="3" height="9" /><rect x="27" y="36" width="3" height="9" /><rect x="33" y="36" width="3" height="9" /><rect x="39" y="36" width="3" height="9" /><rect x="51" y="36" width="3" height="9" /><rect x="54" y="36" width="3" height="9" /><rect x="57" y="36" width="3" height="9" /><rect x="63" y="36" width="3" height="9" /><rect x="69" y="36" width="3" height="9" /><rect x="72" y="36" width="3" height="9" /><rect x="75" y="36" width="3" height="9" /><rect x="90" y="36" width="3" height="9" /><rect x="93" y="36" width="3" height="9" /><rect x="102" y="36" width="3" height="9" /><rect x="117" y="36" width="3" height="9" /><rect x="120" y="36" width="3" height="9" /><rect x="126" y="36" width="3" height="9" /><rect x="132" y="36" width="3" height="9" /><rect x="135" y="36" width="3" height="9" /><rect x="138" y="36" width="3" height="9" /><rect x="141" y="36" width="3" height="9" /><rect x="144" y="36" width="3" height="9" /><rect x="147" y="36" width="3" height="9" /><rect x="153" y="36" width="3" height="9" /><rect x="156" y="36" width="3" height="9" /><rect x="162" y="36" width="3" height="9" /><rect x="165" y="36" width="3" height="9" /><rect x="177" y="36" width="3" height="9" /><rect x="180" y="36" width="3" height="9" /><rect x="183" y="36" width="3" height="9" /><rect x="186" y="36" width="3" height="9" /><rect x="198" y="36" width="3" height="9" /><rect x="204" y="36" width="3" height="9" /><rect x="207" y="36" width="3" height="9" /><rect x="213" y="36" width="3" height="9" /><rect x="216" y="36" width="3" height="9" /><rect x="219" y="36" width="3" height="9" /><rect x="225" y="36" width="3" height="9" /><rect x="228" y="36" width="3" height="9" /><rect x="231" y="36" width="3" height="9" /><rect x="234" y="36" width="3" height="9" /><rect x="237" y="36" width="3" height="9" /><rect x="249" y="36" width="3" height="9" /><rect x="255" y="36" width="3" height="9" /><rect x="258" y="36" width="3" height="9" /><rect x="261" y="36" width="3" height="9" /><rect x="264" y="36" width="3" height="9" /><rect x="279" y="36" width="3" height="9" /><rect x="285" y="36" width="3" height="9" /><rect x="297" y="36" width="3" height="9" /><rect x="306" y="36" width="3" height="9" /><rect x="312" y="36" width="3" height="9" /><rect x="315" y="36" width="3" height="9" /><rect x="324" y="36" width="3" height="9" /><rect x="330" y="36" width="3" height="9" /><rect x="333" y="36" width="3" height="9" /><rect x="336" y="36" width="3" height="9" /><rect x="339" y="36" width="3" height="9" /><rect x="342" y="36" width="3" height="9" /><rect x="345" y="36" width="3" height="9" /><rect x="357" y="36" width="3" height="9" /><rect x="360" y="36" width="3" height="9" /><rect x="369" y="36" width="3" height="9" /><rect x="375" y="36" width="3" height="9" /><rect x="378" y="36" width="3" height="9" /><rect x="381" y="36" width="3" height="9" /><rect x="393" y="36" width="3" height="9" /><rect x="408" y="36" width="3" height="9" /><rect x="411" y="36" width="3" height="9" /><rect x="414" y="36" width="3" height="9" /><rect x="417" y="36" width="3" height="9" /><rect x="423" y="36" width="3" height="9" /><rect x="429" y="36" width="3" height="9" /><rect x="432" y="36" width="3" height="9" /><rect x="435" y="36" width="3" height="9" /><rect x="444" y="36" width="3" height="9" /><rect x="447" y="36" width="3" height="9" /><rect x="450" y="36" width="3" height="9" /><rect x="459" y="36" width="3" height="9" /><rect x="462" y="36" width="3" height="9" /><rect x="465" y="36" width="3" height="9" /><rect x="468" y="36" width="3" height="9" /><rect x="471" y="36" width="3" height="9" /><rect x="474" y="36" width="3" height="9" /><rect x="477" y="36" width="3" height="9" /><rect x="483" y="36" width="3" height="9" /><rect x="495" y="36" width="3" height="9" /><rect x="501" y="36" width="3" height="9" /><rect x="510" y="36" width="3" height="9" /><rect x="0" y="45" width="3" height="9" /><rect x="3" y="45" width="3" height="9" /><rect x="6" y="45" width="3" height="9" /><rect x="9" y="45" width="3" height="9" /><rect x="12" y="45" width="3" height="9" /><rect x="15" y="45" width="3" height="9" /><rect x="18" y="45" width="3" height="9" /><rect x="21" y="45" width="3" height="9" /><rect x="27" y="45" width="3" height="9" /><rect x="33" y="45" width="3" height="9" /><rect x="39" y="45" width="3" height="9" /><rect x="51" y="45" width="3" height="9" /><rect x="54" y="45" width="3" height="9" /><rect x="57" y="45" width="3" height="9" /><rect x="60" y="45" width="3" height="9" /><rect x="66" y="45" width="3" height="9" /><rect x="72" y="45" width="3" height="9" /><rect x="75" y="45" width="3" height="9" /><rect x="78" y="45" width="3" height="9" /><rect x="81" y="45" width="3" height="9" /><rect x="93" y="45" width="3" height="9" /><rect x="102" y="45" width="3" height="9" /><rect x="111" y="45" width="3" height="9" /><rect x="114" y="45" width="3" height="9" /><rect x="123" y="45" width="3" height="9" /><rect x="126" y="45" width="3" height="9" /><rect x="138" y="45" width="3" height="9" /><rect x="141" y="45" width="3" height="9" /><rect x="144" y="45" width="3" height="9" /><rect x="147" y="45" width="3" height="9" /><rect x="153" y="45" width="3" height="9" /><rect x="162" y="45" width="3" height="9" /><rect x="165" y="45" width="3" height="9" /><rect x="168" y="45" width="3" height="9" /><rect x="174" y="45" width="3" height="9" /><rect x="177" y="45" width="3" height="9" /><rect x="189" y="45" width="3" height="9" /><rect x="192" y="45" width="3" height="9" /><rect x="195" y="45" width="3" height="9" /><rect x="204" y="45" width="3" height="9" /><rect x="210" y="45" width="3" height="9" /><rect x="213" y="45" width="3" height="9" /><rect x="216" y="45" width="3" height="9" /><rect x="219" y="45" width="3" height="9" /><rect x="225" y="45" width="3" height="9" /><rect x="228" y="45" width="3" height="9" /><rect x="231" y="45" width="3" height="9" /><rect x="243" y="45" width="3" height="9" /><rect x="246" y="45" width="3" height="9" /><rect x="249" y="45" width="3" height="9" /><rect x="255" y="45" width="3" height="9" /><rect x="258" y="45" width="3" height="9" /><rect x="261" y="45" width="3" height="9" /><rect x="270" y="45" width="3" height="9" /><rect x="276" y="45" width="3" height="9" /><rect x="282" y="45" width="3" height="9" /><rect x="285" y="45" width="3" height="9" /><rect x="288" y="45" width="3" height="9" /><rect x="291" y="45" width="3" height="9" /><rect x="294" y="45" width="3" height="9" /><rect x="297" y="45" width="3" height="9" /><rect x="306" y="45" width="3" height="9" /><rect x="312" y="45" width="3" height="9" /><rect x="315" y="45" width="3" height="9" /><rect x="318" y="45" width="3" height="9" /><rect x="324" y="45" width="3" height="9" /><rect x="336" y="45" width="3" height="9" /><rect x="339" y="45" width="3" height="9" /><rect x="357" y="45" width="3" height="9" /><rect x="366" y="45" width="3" height="9" /><rect x="369" y="45" width="3" height="9" /><rect x="372" y="45" width="3" height="9" /><rect x="378" y="45" width="3" height="9" /><rect x="384" y="45" width="3" height="9" /><rect x="387" y="45" width="3" height="9" /><rect x="408" y="45" width="3" height="9" /><rect x="411" y="45" width="3" height="9" /><rect x="414" y="45" width="3" height="9" /><rect x="420" y="45" width="3" height="9" /><rect x="426" y="45" width="3" height="9" /><rect x="429" y="45" width="3" height="9" /><rect x="432" y="45" width="3" height="9" /><rect x="435" y="45" width="3" height="9" /><rect x="438" y="45" width="3" height="9" /><rect x="444" y="45" width="3" height="9" /><rect x="459" y="45" width="3" height="9" /><rect x="462" y="45" width="3" height="9" /><rect x="465" y="45" width="3" height="9" /><rect x="468" y="45" width="3" height="9" /><rect x="471" y="45" width="3" height="9" /><rect x="474" y="45" width="3" height="9" /><rect x="477" y="45" width="3" height="9" /><rect x="483" y="45" width="3" height="9" /><rect x="495" y="45" width="3" height="9" /><rect x="501" y="45" width="3" height="9" /><rect x="510" y="45" width="3" height="9" /><rect x="0" y="54" width="3" height="9" /><rect x="3" y="54" width="3" height="9" /><rect x="6" y="54" width="3" height="9" /><rect x="9" y="54" width="3" height="9" /><rect x="12" y="54" width="3" height="9" /><rect x="15" y="54" width="3" height="9" /><rect x="18" y="54" width="3" height="9" /><rect x="21" y="54" width="3" height="9" /><rect x="27" y="54" width="3" height="9" /><rect x="33" y="54" width="3" height="9" /><rect x="39" y="54" width="3" height="9" /><rect x="51" y="54" width="3" height="9" /><rect x="54" y="54" width="3" height="9" /><rect x="57" y="54" width="3" height="9" /><rect x="63" y="54" width="3" height="9" /><rect x="72" y="54" width="3" height="9" /><rect x="75" y="54" width="3" height="9" /><rect x="78" y="54" width="3" height="9" /><rect x="84" y="54" width="3" height="9" /><rect x="87" y="54" width="3" height="9" /><rect x="90" y="54" width="3" height="9" /><rect x="93" y="54" width="3" height="9" /><rect x="96" y="54" width="3" height="9" /><rect x="102" y="54" width="3" height="9" /><rect x="105" y="54" width="3" height="9" /><rect x="111" y="54" width="3" height="9" /><rect x="120" y="54" width="3" height="9" /><rect x="129" y="54" width="3" height="9" /><rect x="132" y="54" width="3" height="9" /><rect x="153" y="54" width="3" height="9" /><rect x="156" y="54" width="3" height="9" /><rect x="159" y="54" width="3" height="9" /><rect x="165" y="54" width="3" height="9" /><rect x="174" y="54" width="3" height="9" /><rect x="180" y="54" width="3" height="9" /><rect x="183" y="54" width="3" height="9" /><rect x="186" y="54" width="3" height="9" /><rect x="204" y="54" width="3" height="9" /><rect x="210" y="54" width="3" height="9" /><rect x="213" y="54" width="3" height="9" /><rect x="222" y="54" width="3" height="9" /><rect x="225" y="54" width="3" height="9" /><rect x="228" y="54" width="3" height="9" /><rect x="240" y="54" width="3" height="9" /><rect x="243" y="54" width="3" height="9" /><rect x="255" y="54" width="3" height="9" /><rect x="264" y="54" width="3" height="9" /><rect x="273" y="54" width="3" height="9" /><rect x="276" y="54" width="3" height="9" /><rect x="285" y="54" width="3" height="9" /><rect x="288" y="54" width="3" height="9" /><rect x="306" y="54" width="3" height="9" /><rect x="309" y="54" width="3" height="9" /><rect x="315" y="54" width="3" height="9" /><rect x="324" y="54" width="3" height="9" /><rect x="333" y="54" width="3" height="9" /><rect x="336" y="54" width="3" height="9" /><rect x="357" y="54" width="3" height="9" /><rect x="360" y="54" width="3" height="9" /><rect x="372" y="54" width="3" height="9" /><rect x="375" y="54" width="3" height="9" /><rect x="378" y="54" width="3" height="9" /><rect x="384" y="54" width="3" height="9" /><rect x="387" y="54" width="3" height="9" /><rect x="399" y="54" width="3" height="9" /><rect x="408" y="54" width="3" height="9" /><rect x="414" y="54" width="3" height="9" /><rect x="423" y="54" width="3" height="9" /><rect x="426" y="54" width="3" height="9" /><rect x="429" y="54" width="3" height="9" /><rect x="441" y="54" width="3" height="9" /><rect x="444" y="54" width="3" height="9" /><rect x="447" y="54" width="3" height="9" /><rect x="459" y="54" width="3" height="9" /><rect x="462" y="54" width="3" height="9" /><rect x="465" y="54" width="3" height="9" /><rect x="468" y="54" width="3" height="9" /><rect x="471" y="54" width="3" height="9" /><rect x="474" y="54" width="3" height="9" /><rect x="477" y="54" width="3" height="9" /><rect x="483" y="54" width="3" height="9" /><rect x="495" y="54" width="3" height="9" /><rect x="501" y="54" width="3" height="9" /><rect x="510" y="54" width="3" height="9" /><rect x="0" y="63" width="3" height="9" /><rect x="3" y="63" width="3" height="9" /><rect x="6" y="63" width="3" height="9" /><rect x="9" y="63" width="3" height="9" /><rect x="12" y="63" width="3" height="9" /><rect x="15" y="63" width="3" height="9" /><rect x="18" y="63" width="3" height="9" /><rect x="21" y="63" width="3" height="9" /><rect x="27" y="63" width="3" height="9" /><rect x="33" y="63" width="3" height="9" /><rect x="39" y="63" width="3" height="9" /><rect x="51" y="63" width="3" height="9" /><rect x="54" y="63" width="3" height="9" /><rect x="57" y="63" width="3" height="9" /><rect x="60" y="63" width="3" height="9" /><rect x="63" y="63" width="3" height="9" /><rect x="69" y="63" width="3" height="9" /><rect x="78" y="63" width="3" height="9" /><rect x="84" y="63" width="3" height="9" /><rect x="87" y="63" width="3" height="9" /><rect x="102" y="63" width="3" height="9" /><rect x="108" y="63" width="3" height="9" /><rect x="111" y="63" width="3" height="9" /><rect x="126" y="63" width="3" height="9" /><rect x="132" y="63" width="3" height="9" /><rect x="135" y="63" width="3" height="9" /><rect x="138" y="63" width="3" height="9" /><rect x="141" y="63" width="3" height="9" /><rect x="144" y="63" width="3" height="9" /><rect x="147" y="63" width="3" height="9" /><rect x="153" y="63" width="3" height="9" /><rect x="156" y="63" width="3" height="9" /><rect x="159" y="63" width="3" height="9" /><rect x="168" y="63" width="3" height="9" /><rect x="177" y="63" width="3" height="9" /><rect x="180" y="63" width="3" height="9" /><rect x="186" y="63" width="3" height="9" /><rect x="204" y="63" width="3" height="9" /><rect x="207" y="63" width="3" height="9" /><rect x="210" y="63" width="3" height="9" /><rect x="216" y="63" width="3" height="9" /><rect x="219" y="63" width="3" height="9" /><rect x="228" y="63" width="3" height="9" /><rect x="231" y="63" width="3" height="9" /><rect x="234" y="63" width="3" height="9" /><rect x="240" y="63" width="3" height="9" /><rect x="255" y="63" width="3" height="9" /><rect x="261" y="63" width="3" height="9" /><rect x="264" y="63" width="3" height="9" /><rect x="267" y="63" width="3" height="9" /><rect x="273" y="63" width="3" height="9" /><rect x="276" y="63" width="3" height="9" /><rect x="282" y="63" width="3" height="9" /><rect x="285" y="63" width="3" height="9" /><rect x="288" y="63" width="3" height="9" /><rect x="291" y="63" width="3" height="9" /><rect x="294" y="63" width="3" height="9" /><rect x="297" y="63" width="3" height="9" /><rect x="306" y="63" width="3" height="9" /><rect x="312" y="63" width="3" height="9" /><rect x="315" y="63" width="3" height="9" /><rect x="318" y="63" width="3" height="9" /><rect x="321" y="63" width="3" height="9" /><rect x="324" y="63" width="3" height="9" /><rect x="336" y="63" width="3" height="9" /><rect x="345" y="63" width="3" height="9" /><rect x="348" y="63" width="3" height="9" /><rect x="351" y="63" width="3" height="9" /><rect x="357" y="63" width="3" height="9" /><rect x="360" y="63" width="3" height="9" /><rect x="363" y="63" width="3" height="9" /><rect x="366" y="63" width="3" height="9" /><rect x="369" y="63" width="3" height="9" /><rect x="372" y="63" width="3" height="9" /><rect x="378" y="63" width="3" height="9" /><rect x="387" y="63" width="3" height="9" /><rect x="393" y="63" width="3" height="9" /><rect x="396" y="63" width="3" height="9" /><rect x="399" y="63" width="3" height="9" /><rect x="408" y="63" width="3" height="9" /><rect x="414" y="63" width="3" height="9" /><rect x="420" y="63" width="3" height="9" /><rect x="423" y="63" width="3" height="9" /><rect x="426" y="63" width="3" height="9" /><rect x="429" y="63" width="3" height="9" /><rect x="432" y="63" width="3" height="9" /><rect x="435" y="63" width="3" height="9" /><rect x="441" y="63" width="3" height="9" /><rect x="444" y="63" width="3" height="9" /><rect x="447" y="63" width="3" height="9" /><rect x="459" y="63" width="3" height="9" /><rect x="462" y="63" width="3" height="9" /><rect x="465" y="63" width="3" height="9" /><rect x="468" y="63" width="3" height="9" /><rect x="471" y="63" width="3" height="9" /><rect x="474" y="63" width="3" height="9" /><rect x="477" y="63" width="3" height="9" /><rect x="483" y="63" width="3" height="9" /><rect x="495" y="63" width="3" height="9" /><rect x="501" y="63" width="3" height="9" /><rect x="510" y="63" width="3" height="9" /></g></svg>