<svg xmlns="http://www.w3.org/2000/svg" width="874" height="250" preserveAspectRatio="xMidYMax meet" viewBox="0 0 874 250"><rect width="874" height="250" fill="transparent" x="0" y="0"/><svg width="822" height="198" x="26" y="26"><path d="M0 0L48 0L48 198L0 198ZM54 0L60 0L60 198L54 198ZM66 0L72 0L72 198L66 198ZM78 0L84 0L84 198L78 198ZM102 0L120 0L120 18L126 18L126 0L132 0L132 18L138 18L138 54L150 54L150 36L156 36L156 0L174 0L174 18L162 18L162 36L180 36L180 54L192 54L192 90L186 90L186 108L180 108L180 72L162 72L162 54L156 54L156 90L168 90L168 108L180 108L180 144L186 144L186 162L192 162L192 198L180 198L180 162L156 162L156 126L162 126L162 144L168 144L168 126L162 126L162 108L150 108L150 126L144 126L144 162L150 162L150 180L162 180L162 198L144 198L144 180L138 180L138 162L132 162L132 144L138 144L138 126L132 126L132 90L138 90L138 108L144 108L144 90L138 90L138 72L132 72L132 90L126 90L126 54L132 54L132 36L126 36L126 54L120 54L120 36L114 36L114 54L108 54L108 72L114 72L114 54L120 54L120 90L126 90L126 108L120 108L120 126L132 126L132 144L120 144L120 198L102 198ZM138 0L144 0L144 18L138 18ZM204 0L228 0L228 36L222 36L222 54L210 54L210 72L222 72L222 54L240 54L240 90L234 90L234 108L228 108L228 126L240 126L240 162L246 162L246 126L240 126L240 90L246 90L246 36L252 36L252 54L258 54L258 18L264 18L264 0L288 0L288 18L276 18L276 36L288 36L288 54L276 54L276 90L270 90L270 54L264 54L264 72L252 72L252 90L258 90L258 108L252 108L252 144L264 144L264 108L270 108L270 126L300 126L300 144L294 144L294 180L288 180L288 162L282 162L282 144L276 144L276 162L264 162L264 180L270 180L270 198L252 198L252 180L258 180L258 162L252 162L252 180L246 180L246 198L240 198L240 180L234 180L234 144L228 144L228 162L222 162L222 198L204 198ZM234 0L240 0L240 18L246 18L246 36L234 36ZM252 0L258 0L258 18L252 18ZM306 0L330 0L330 18L318 18L318 36L312 36L312 54L318 54L318 90L312 90L312 108L318 108L318 126L324 126L324 90L330 90L330 72L336 72L336 90L342 90L342 108L336 108L336 126L330 126L330 162L324 162L324 180L312 180L312 198L306 198ZM336 0L348 0L348 18L336 18ZM360 0L366 0L366 18L360 18ZM378 0L396 0L396 36L390 36L390 18L384 18L384 54L378 54L378 36L366 36L366 18L378 18ZM408 0L420 0L420 36L414 36L414 54L420 54L420 90L414 90L414 108L420 108L420 126L426 126L426 144L414 144L414 180L426 180L426 144L432 144L432 162L438 162L438 198L408 198ZM432 0L438 0L438 18L450 18L450 36L444 36L444 54L438 54L438 72L426 72L426 54L420 54L420 36L432 36ZM456 0L462 0L462 18L456 18ZM486 0L498 0L498 18L492 18L492 36L486 36L486 54L480 54L480 36L468 36L468 54L474 54L474 72L462 72L462 18L486 18ZM510 0L522 0L522 18L528 18L528 36L516 36L516 54L534 54L534 90L540 90L540 72L546 72L546 90L552 90L552 108L528 108L528 90L522 90L522 108L528 108L528 126L516 126L516 144L534 144L534 126L540 126L540 180L534 180L534 162L522 162L522 180L528 180L528 198L510 198ZM534 0L540 0L540 18L534 18ZM546 0L552 0L552 36L558 36L558 72L552 72L552 54L534 54L534 36L546 36ZM564 0L576 0L576 18L588 18L588 36L582 36L582 54L576 54L576 36L570 36L570 18L564 18ZM612 0L630 0L630 18L636 18L636 0L642 0L642 54L648 54L648 0L654 0L654 54L666 54L666 72L660 72L660 90L678 90L678 108L684 108L684 90L690 90L690 126L708 126L708 162L702 162L702 180L690 180L690 162L678 162L678 144L684 144L684 126L678 126L678 144L654 144L654 162L660 162L660 180L666 180L666 198L648 198L648 162L642 162L642 108L648 108L648 90L642 90L642 72L636 72L636 36L630 36L630 72L624 72L624 54L618 54L618 72L624 72L624 90L630 90L630 126L624 126L624 108L618 108L618 126L624 126L624 144L618 144L618 180L624 180L624 198L612 198ZM666 0L684 0L684 18L690 18L690 36L708 36L708 54L702 54L702 72L684 72L684 90L678 90L678 72L672 72L672 36L678 36L678 18L666 18ZM714 0L756 0L756 198L714 198ZM762 0L768 0L768 198L762 198ZM786 0L792 0L792 198L786 198ZM798 0L804 0L804 198L798 198ZM816 0L822 0L822 198L816 198ZM144 18L150 18L150 36L144 36ZM180 18L198 18L198 36L180 36ZM288 18L300 18L300 54L294 54L294 36L288 36ZM354 18L360 18L360 36L354 36ZM498 18L504 18L504 36L498 36ZM594 18L606 18L606 36L594 36ZM660 18L666 18L666 36L660 36ZM330 36L354 36L354 72L366 72L366 108L372 108L372 198L348 198L348 144L360 144L360 90L342 90L342 72L336 72L336 54L330 54ZM396 36L402 36L402 54L396 54ZM588 36L594 36L594 54L606 54L606 72L594 72L594 90L588 90L588 72L582 72L582 54L588 54ZM366 54L378 54L378 72L366 72ZM384 54L390 54L390 72L396 72L396 90L402 90L402 108L396 108L396 126L390 126L390 144L378 144L378 126L384 126L384 108L390 108L390 90L384 90ZM486 54L498 54L498 72L492 72L492 90L498 90L498 72L504 72L504 108L480 108L480 90L474 90L474 72L486 72ZM570 54L576 54L576 72L570 72ZM282 72L300 72L300 108L276 108L276 90L282 90ZM456 72L462 72L462 90L468 90L468 108L474 108L474 144L462 144L462 126L456 126ZM558 72L564 72L564 90L558 90ZM630 72L636 72L636 90L630 90ZM210 90L210 126L216 126L216 144L222 144L222 126L216 126L216 90ZM426 90L438 90L438 108L432 108L432 126L426 126ZM570 90L576 90L576 108L570 108ZM594 90L606 90L606 126L600 126L600 144L594 144ZM636 90L642 90L642 108L636 108ZM108 108L108 126L114 126L114 108ZM438 108L450 108L450 126L444 126L444 144L438 144ZM552 108L564 108L564 126L570 126L570 144L588 144L588 162L600 162L600 180L594 180L594 198L588 198L588 180L582 180L582 162L570 162L570 180L564 180L564 198L552 198L552 180L558 180L558 162L564 162L564 144L558 144L558 162L546 162L546 126L552 126ZM582 108L588 108L588 126L582 126ZM660 108L660 126L672 126L672 108ZM336 126L342 126L342 162L336 162ZM480 126L486 126L486 144L504 144L504 162L480 162ZM630 126L636 126L636 144L630 144ZM108 144L108 180L114 180L114 144ZM390 144L396 144L396 162L402 162L402 180L390 180L390 198L384 198L384 162L390 162ZM456 144L462 144L462 162L468 162L468 198L450 198L450 180L456 180ZM600 144L606 144L606 162L600 162ZM624 144L630 144L630 180L624 180ZM354 162L354 180L366 180L366 162ZM474 162L480 162L480 180L486 180L486 198L474 198ZM126 180L132 180L132 198L126 198ZM276 180L288 180L288 198L276 198ZM336 180L342 180L342 198L336 198ZM498 180L504 180L504 198L498 198ZM540 180L546 180L546 198L540 198ZM630 180L636 180L636 198L630 198ZM678 180L684 180L684 198L678 198Z" fill="#000000" fill-rule="evenodd"/></svg><desc>Barcode generated at https://orcascan.com</desc></svg>
